<?xml version="1.0" standalone="no"?>
<!DOCTYPE svg PUBLIC "-//W3C//DTD SVG 20010904//EN"
 "http://www.w3.org/TR/2001/REC-SVG-20010904/DTD/svg10.dtd">
<svg version="1.0" xmlns="http://www.w3.org/2000/svg"
 width="1024.000000pt" height="1024.000000pt" viewBox="0 0 1024.000000 1024.000000"
 preserveAspectRatio="xMidYMid meet">
<metadata>
Created by potrace 1.11, written by Peter Selinger 2001-2013
</metadata>
<g transform="translate(0.000000,1024.000000) scale(0.100000,-0.100000)"
fill="#000000" stroke="none">
<path d="M4927 9395 c-1 -2 -54 -5 -117 -9 -63 -3 -126 -8 -140 -10 -14 -3
-53 -7 -86 -10 -72 -7 -119 -13 -189 -26 -27 -5 -70 -12 -95 -15 -25 -3 -83
-15 -130 -26 -47 -11 -96 -23 -110 -25 -59 -11 -313 -86 -355 -104 -11 -5 -60
-23 -110 -41 -49 -17 -115 -43 -145 -56 -30 -14 -95 -43 -144 -64 -48 -22
-107 -50 -130 -63 -22 -12 -77 -42 -121 -66 -77 -43 -339 -206 -367 -229 -7
-6 -62 -48 -123 -93 -60 -44 -112 -84 -115 -87 -3 -4 -48 -42 -100 -86 -133
-112 -397 -379 -520 -526 -91 -109 -273 -349 -307 -405 -6 -10 -38 -62 -71
-114 -145 -231 -267 -484 -362 -749 -48 -134 -113 -351 -131 -436 -7 -33 -14
-64 -15 -70 -9 -37 -35 -179 -39 -219 -4 -28 -8 -53 -10 -56 -2 -3 -6 -30 -10
-60 -3 -30 -8 -68 -10 -85 -7 -52 -17 -167 -24 -275 -8 -118 -5 -568 3 -615 3
-16 8 -64 12 -105 3 -41 7 -88 9 -105 6 -51 25 -177 30 -199 2 -12 7 -37 9
-56 4 -29 21 -113 41 -200 31 -138 89 -341 120 -420 7 -19 28 -73 45 -120 17
-47 37 -98 45 -115 18 -42 58 -131 84 -188 51 -111 282 -512 311 -537 3 -3 34
-45 70 -95 216 -304 514 -614 833 -871 75 -60 161 -127 192 -149 30 -22 61
-45 68 -50 24 -20 223 -143 307 -190 47 -25 96 -53 110 -61 14 -8 59 -30 100
-50 41 -20 92 -45 113 -55 22 -11 45 -19 52 -19 7 0 15 -4 17 -8 2 -5 37 -21
78 -36 133 -50 265 -98 280 -101 8 -2 62 -18 119 -34 105 -31 350 -89 406 -97
17 -3 75 -12 130 -20 55 -9 123 -18 150 -20 28 -2 67 -6 89 -9 94 -12 235 -18
421 -19 191 0 439 9 467 18 7 3 45 7 83 10 39 3 97 10 130 15 33 5 78 12 100
16 78 11 111 17 235 46 113 27 322 83 360 96 8 4 20 7 25 8 66 16 511 203 571
240 11 8 60 34 109 60 180 96 463 287 606 410 19 16 57 48 85 70 139 113 427
401 544 545 25 30 53 64 63 75 67 72 296 401 353 505 10 19 21 37 24 40 6 6
36 64 115 220 109 215 183 403 255 645 34 112 45 154 65 245 2 8 12 56 24 105
11 50 22 114 26 143 3 29 10 74 15 100 5 27 12 82 15 123 4 40 9 85 11 99 24
141 24 662 0 880 -3 30 -8 78 -11 105 -3 28 -7 61 -9 75 -2 14 -10 59 -16 100
-6 41 -13 86 -16 100 -7 48 -23 125 -39 195 -9 39 -19 79 -21 90 -6 36 -92
308 -119 380 -14 39 -33 89 -41 112 -28 81 -151 338 -221 463 -19 36 -41 74
-47 85 -6 11 -32 53 -59 93 -26 40 -47 75 -47 78 0 4 -108 155 -128 179 -5 6
-17 24 -28 40 -10 17 -21 32 -24 35 -5 4 -55 66 -111 135 -148 182 -407 442
-602 604 -78 64 -158 128 -177 141 -19 13 -37 27 -40 30 -9 11 -165 117 -250
171 -145 90 -342 196 -472 254 -32 14 -82 36 -110 49 -29 13 -75 31 -103 41
-27 10 -63 23 -80 30 -16 7 -55 20 -85 30 -30 10 -64 21 -75 26 -161 62 -605
151 -875 174 -41 3 -97 9 -125 12 -46 5 -512 12 -518 8z m-359 -2584 l0 -1430
-216 -173 c-119 -95 -226 -181 -237 -190 -17 -14 -381 -304 -473 -377 -18 -14
-48 -38 -65 -52 -18 -15 -72 -59 -122 -98 -49 -39 -97 -77 -105 -84 -9 -6 -78
-61 -154 -122 -76 -60 -170 -136 -210 -168 -39 -31 -75 -61 -81 -65 -5 -4 -39
-31 -75 -60 -36 -29 -160 -128 -276 -222 l-212 -169 -65 132 c-91 186 -113
237 -163 382 -36 101 -59 181 -68 229 -3 14 -7 29 -10 34 -10 16 -64 326 -71
407 -4 44 -9 98 -11 120 -6 64 -5 406 0 455 3 25 8 68 12 95 14 130 19 163 39
260 8 39 16 84 19 100 12 62 77 282 112 374 20 53 37 101 39 106 7 30 162 355
174 365 3 3 14 21 25 40 17 32 150 240 169 265 4 6 37 48 72 95 140 184 308
355 500 510 44 36 85 70 91 76 7 6 45 33 85 60 41 27 76 51 79 54 13 13 91 60
100 60 5 0 10 5 10 10 0 6 5 10 11 10 6 0 43 19 82 43 207 124 622 284 832
321 17 3 53 12 80 20 28 7 57 14 66 15 16 1 17 -110 17 -1428z m1282 1394
c106 -23 298 -78 335 -95 11 -5 54 -22 95 -36 106 -37 304 -130 390 -182 19
-12 53 -31 75 -43 38 -21 214 -138 225 -149 3 -3 21 -17 40 -30 19 -13 41 -30
48 -37 8 -7 30 -26 50 -41 69 -51 279 -253 383 -367 54 -60 210 -262 254 -330
22 -33 42 -62 46 -65 17 -13 128 -211 194 -345 65 -134 141 -326 173 -440 7
-22 20 -71 31 -110 27 -95 68 -305 76 -390 4 -38 9 -79 12 -90 5 -25 17 -264
16 -325 -2 -171 -23 -448 -37 -499 -3 -9 -7 -33 -10 -53 -3 -21 -11 -59 -17
-85 -6 -27 -13 -59 -15 -73 -19 -98 -88 -317 -146 -460 -40 -101 -156 -338
-168 -345 -8 -5 -266 191 -344 260 -6 6 -31 26 -56 45 -51 39 -72 57 -103 84
-12 10 -38 30 -57 45 -19 14 -44 33 -55 43 -30 24 -108 87 -125 101 -96 75
-200 158 -229 183 -20 16 -90 72 -156 124 -127 100 -128 101 -191 152 -22 18
-58 47 -79 63 -21 17 -52 41 -69 55 -39 32 -40 32 -176 141 -63 50 -131 104
-150 120 -19 15 -84 67 -145 116 -60 48 -116 93 -123 100 -7 7 -16 13 -20 13
-4 0 -23 15 -42 33 -19 17 -51 44 -72 59 l-36 28 0 1430 0 1431 36 -7 c21 -3
84 -16 142 -29z m-1282 -5226 l-1 -980 -26 6 c-14 3 -39 8 -56 11 -102 17
-321 77 -420 114 -140 52 -236 91 -290 118 -33 16 -80 39 -105 51 -25 12 -54
28 -65 34 -11 7 -43 25 -70 41 -74 43 -183 114 -245 160 -90 67 -250 198 -250
205 0 4 248 205 552 447 303 241 579 462 612 489 34 28 81 66 106 85 48 37 50
39 120 95 93 75 132 105 136 105 1 0 2 -441 2 -981z m1282 846 c89 -71 190
-153 224 -181 34 -28 93 -74 131 -104 39 -29 72 -57 75 -60 3 -4 25 -22 50
-41 25 -19 124 -97 220 -174 96 -77 181 -144 188 -150 7 -5 18 -15 25 -20 7
-6 32 -26 57 -45 25 -19 47 -37 50 -40 3 -3 37 -30 75 -60 39 -30 72 -57 75
-60 3 -3 44 -37 93 -74 48 -38 87 -72 87 -76 0 -6 -154 -134 -230 -191 -197
-147 -451 -288 -665 -369 -55 -21 -117 -46 -137 -54 -21 -9 -41 -16 -45 -16
-5 0 -44 -11 -88 -24 -89 -27 -185 -52 -230 -60 -16 -3 -39 -8 -50 -10 -11 -3
-34 -8 -52 -11 l-31 -7 0 981 c0 540 3 981 7 979 4 -2 81 -61 171 -133z"/>
</g>
</svg>
